<?xml version="1.0" encoding="UTF-8" standalone="no"?>
<!-- Created with Inkscape (http://www.inkscape.org/) -->

<svg
   width="160"
   height="160"
   viewBox="0 0 160 160.00001"
   version="1.1"
   id="svg1"
   inkscape:version="1.3 (0e150ed6c4, 2023-07-21)"
   sodipodi:docname="icon.svg"
   xmlns:inkscape="http://www.inkscape.org/namespaces/inkscape"
   xmlns:sodipodi="http://sodipodi.sourceforge.net/DTD/sodipodi-0.dtd"
   xmlns="http://www.w3.org/2000/svg"
   xmlns:svg="http://www.w3.org/2000/svg">
  <sodipodi:namedview
     id="namedview1"
     pagecolor="#ffffff"
     bordercolor="#666666"
     borderopacity="1.0"
     inkscape:showpageshadow="2"
     inkscape:pageopacity="0.0"
     inkscape:pagecheckerboard="0"
     inkscape:deskcolor="#d1d1d1"
     inkscape:document-units="px"
     inkscape:zoom="1.0356019"
     inkscape:cx="210.98841"
     inkscape:cy="153.5339"
     inkscape:window-width="1920"
     inkscape:window-height="1018"
     inkscape:window-x="-6"
     inkscape:window-y="-6"
     inkscape:window-maximized="1"
     inkscape:current-layer="layer1-0" />
  <defs
     id="defs1">
    <filter
       style="color-interpolation-filters:sRGB;"
       inkscape:label="Drop Shadow"
       id="filter21"
       x="-0.12037506"
       y="-0.037542718"
       width="1.3109689"
       height="1.0969854">
      <feFlood
         result="flood"
         in="SourceGraphic"
         flood-opacity="0.498039"
         flood-color="rgb(0,0,0)"
         id="feFlood20" />
      <feGaussianBlur
         result="blur"
         in="SourceGraphic"
         stdDeviation="5.000000"
         id="feGaussianBlur20" />
      <feOffset
         result="offset"
         in="blur"
         dx="7.000000"
         dy="7.000000"
         id="feOffset20" />
      <feComposite
         result="comp1"
         operator="in"
         in="flood"
         in2="offset"
         id="feComposite20" />
      <feComposite
         result="comp2"
         operator="over"
         in="SourceGraphic"
         in2="comp1"
         id="feComposite21" />
    </filter>
    <filter
       style="color-interpolation-filters:sRGB;"
       inkscape:label="Drop Shadow"
       id="filter60"
       x="-0.24448536"
       y="-0.12581685"
       width="1.4889562"
       height="1.2520876">
      <feFlood
         result="flood"
         in="SourceGraphic"
         flood-opacity="1.000000"
         flood-color="rgb(132,135,233)"
         id="feFlood59" />
      <feGaussianBlur
         result="blur"
         in="SourceGraphic"
         stdDeviation="15.197568"
         id="feGaussianBlur59" />
      <feOffset
         result="offset"
         in="blur"
         dx="0.000000"
         dy="0.000000"
         id="feOffset59" />
      <feComposite
         result="comp1"
         operator="in"
         in="flood"
         in2="offset"
         id="feComposite59" />
      <feComposite
         result="comp2"
         operator="over"
         in="SourceGraphic"
         in2="comp1"
         id="feComposite60" />
    </filter>
  </defs>
  <g
     inkscape:groupmode="layer"
     id="layer2"
     inkscape:label="Layer 2">
    <rect
       style="fill:#5186f3;fill-opacity:1;fill-rule:evenodd;stroke:none;stroke-width:1.77863"
       id="rect1"
       width="160"
       height="160"
       x="0"
       y="0" />
  </g>
  <g
     id="layer1-0"
     transform="matrix(0.54664553,0.1230803,-0.1230803,0.54664553,98.012793,-0.77960038)">
    <path
       style="fill:#519900;fill-opacity:1;stroke:#000000;stroke-width:0.263157px;stroke-linecap:butt;stroke-linejoin:miter;stroke-opacity:1;filter:url(#filter60)"
       d="m 68.715528,235.4552 c -3.292934,3.8381 -4.306391,8.40148 -10.926742,11.18086 l -0.635277,5.84455 c -5.131383,2.78755 -13.214375,-1.06165 -20.837044,0 l -3.430491,6.35275 c -1.153419,0.321 -1.647346,1.35645 -4.701039,-0.38117 l -1.143497,7.24215 c -9.815146,10.90453 -18.147665,19.36711 -22.2346557,20.83705 0.205189,2.50166 1.4893187,2.53718 4.0657647,-0.38117 4.621079,1.22035 4.594724,3.21527 5.33632,5.0822 0.891608,-1.33163 4.145173,-0.0651 2.03288,-4.70103 4.450065,-2.73013 8.506377,-5.65713 14.230179,-7.75038 5.753844,1.14649 10.760051,2.66682 14.48429,4.82811 1.723885,-2.73213 3.483589,-5.37829 3.557545,-12.07025 3.578489,-1.4612 7.122015,-2.93406 11.689072,-4.06575 4.418484,3.10291 9.57651,5.30195 17.025391,4.70104 3.931334,-5.12074 10.820996,-7.52967 22.869936,-5.20927 9.87426,-3.80596 15.74927,-2.27956 20.58293,0.63529 4.3413,-2.17385 7.23641,-5.63319 14.35724,-5.33634 0.65567,-2.53769 0.69959,-5.17736 7.24214,-6.73391 0.63528,-2.19075 1.27055,-2.95194 1.90583,-8.25859 -6.41676,0.35824 -12.79665,0.85171 -20.20177,-2.41405 11.01542,-3.47818 13.59083,-6.68622 6.98802,-8.13153 7.03099,-2.92404 14.99228,-5.17381 5.9716,-7.1151 13.89865,1.28488 13.24157,-19.39018 12.70553,-21.2182 -1.76287,-6.6329 -5.87793,-12.21481 -23.37816,-11.81613 l -2.92227,6.47981 c -2.44959,-1.45862 -4.65889,-3.07742 -6.09865,-5.20926 l 5.46337,-5.0822 c -1.32499,-9.04633 -6.04483,-18.40577 -20.20176,-19.56651 3.95305,0.0324 5.55123,-2.06132 16.13601,2.54111 -2.50363,-4.88641 -6.11713,-9.55086 -7.1151,-14.7384 l 2.287,-1.52466 -5.59043,-5.71749 c -0.44958,-7.16965 -7.552,-9.34968 -14.611342,-11.56202 C 83.759716,126.89059 88.361488,111.65333 79.896384,107.00243 74.926627,95.195489 70.860553,99.94889 62.489828,90.866422 60.333326,100.88661 52.035463,96.167539 45.083272,94.678077 l 10.418523,-3.93871 9.910306,-5.082207 c -1.862138,-1.77398 -4.829436,-3.133527 -4.192827,-5.844537 l -8.004472,2.286991 C 59.736818,78.026959 68.756784,78.040254 68.461425,68.885878 74.545821,63.2813 75.42799,56.376167 76.211782,49.446438 90.549808,39.654925 74.915518,22.262791 33.775361,42.204292 31.519706,23.488002 59.93201,11.132647 56.772346,0.14903279 42.567557,2.5122882 27.579605,5.9811875 18.909906,0.53019807 -0.38687976,36.114563 -2.4359328,62.519194 2.2656788,76.128023 7.3804961,80.234089 9.6761628,73.533412 12.938315,70.537595 4.1485555,89.710138 5.6521777,103.22133 2.9009559,119.07268 c 4.7734961,3.93768 7.4746021,-6.63138 9.9103021,-19.05829 4.434901,0.90166 7.701977,-1.11623 10.799689,-3.557539 -6.470764,5.906879 -1.885507,11.143689 2.541105,16.390119 -15.674233,24.4761 0.789664,20.44257 3.811655,28.3333 l 0.889386,-7.49624 c 7.216396,8.33738 13.472173,-0.13606 20.074714,-2.54112 l -5.46337,15.11958 c 2.541103,5.48016 5.082206,10.14713 7.623309,9.27502 -0.899032,2.50357 -0.270313,4.24327 0.127056,6.09865 2.072348,-2.76153 4.366976,-4.85622 7.115092,-5.59043 1.548329,3.5517 -1.619622,8.91735 -4.319879,14.10312 l 2.414048,2.15994 -3.430488,5.71748 1.651716,3.4305 -2.668157,1.65171 c -2.933047,3.00965 -11.76107,3.45627 -18.168889,4.95515 -1.224138,-1.84317 -2.424778,-3.56883 -3.811655,-6.2257 l -5.590429,1.01644 c 1.443219,8.52354 3.781105,8.39862 6.225703,7.24215 -1.98264,5.99918 -6.009914,8.83849 -9.783249,12.07023 3.840715,1.99951 7.504077,-0.96684 11.180856,-3.55754 9.354201,19.91141 -5.688997,26.42816 -21.726433,32.39906 l 0.381164,1.27056 3.17638,0.63527 0.508221,2.15994 -2.795214,1.1435 1.397607,1.52466 4.573987,-0.38117 -3.049326,1.27056 3.049326,2.03288 c 3.420961,-2.23663 7.091599,-4.36624 11.689074,-6.09865 -1.062405,3.68767 2.387233,3.5401 4.446931,4.57399 -1.610686,0.13801 -3.230465,0.26825 -3.684598,1.3976 0.182719,0.76233 0.793486,1.52467 2.159936,2.287 l 6.86098,-2.79522 c 8.742109,13.16522 17.716368,3.05801 27.698022,-4.57399 z"
       id="path1-0" />
  </g>
  <g
     inkscape:label="Layer 1"
     inkscape:groupmode="layer"
     id="layer1"
     style="filter:url(#filter21)">
    <path
       style="fill:#6e5631;fill-opacity:1;stroke:none;stroke-width:4.36985px;stroke-linecap:butt;stroke-linejoin:miter;stroke-opacity:1"
       d="M 51.078246,37.416524 25.233077,44.2734 9.4095281,74.338158 13.629136,127.61079 88.527312,128.13828 96.96657,68.008735 77.450854,41.108686 Z"
       id="path2"
       inkscape:label="haid_b" />
    <path
       style="fill:#aea585;fill-opacity:1;stroke:none;stroke-width:4.36985px;stroke-linecap:butt;stroke-linejoin:miter;stroke-opacity:1"
       d="m 85.890068,329.62491 c 0.52744,-2.10984 -23.735322,-2.1098 -23.735322,-2.1098 L 53.715489,226.77178 47.913518,326.46019 18.903667,326.98763 21.01347,218.86 l 63.294234,2.10979 z"
       id="path4"
       inkscape:label="legs"
       sodipodi:nodetypes="cccccccc" />
    <path
       style="fill:#9d835a;fill-opacity:1;stroke:none;stroke-width:4.36985px;stroke-linecap:butt;stroke-linejoin:miter;stroke-opacity:1"
       d="m 64.264549,111.25981 25.317687,22.68044 1.054923,101.27073 -77.008023,0.52748 1.054923,-99.16097 31.647095,-24.79024 z"
       id="path3"
       inkscape:label="tunic" />
    <circle
       style="display:inline;fill:#d6c4a3;fill-opacity:1;fill-rule:evenodd;stroke-width:0"
       id="path1"
       cx="53.188084"
       cy="80.667603"
       r="33.229473"
       inkscape:label="head" />
    <path
       style="fill:#6e5631;fill-opacity:1;stroke:none;stroke-width:4.36985px;stroke-linecap:butt;stroke-linejoin:miter;stroke-opacity:1"
       d="m 18.903667,66.42638 35.339305,-6.856877 29.537293,5.801976 6.856894,15.823556 -22.680442,25.845165 -24.790245,1.05488 -26.37261,-22.152976 3.164728,17.933366 10.021577,8.9667 22.680442,4.74705 26.372564,-7.38434 L 88.527312,98.600942 94.329281,76.97542 79.033173,52.185178 55.297852,43.745947 21.01347,56.932247 Z"
       id="path6"
       inkscape:label="beard" />
    <path
       style="display:inline;fill:#55422a;fill-opacity:1;stroke:none;stroke-width:4.3767;stroke-linecap:butt;stroke-linejoin:miter;stroke-dasharray:none;stroke-opacity:1"
       d="M 102.76854,56.932247 C 87.472431,56.404794 3.0801193,58.514602 3.0801193,58.514602 L 27.342924,29.504745 33.144894,9.989022 h 47.470644 l 3.692166,17.933364 z"
       id="path5"
       sodipodi:nodetypes="ccccccc"
       inkscape:label="hat" />
  </g>
</svg>
